<svg xmlns="http://www.w3.org/2000/svg" fill="none" stroke-linecap="square" stroke-miterlimit="10" viewBox="0 0 2000 2000" aria-hidden="true">
  <clipPath id="belltowne-logo-clip">
    <path d="M0 0h2000v2000H0V0z"/>
  </clipPath>
  <g clip-path="url(#belltowne-logo-clip)">
    <path d="M0 0h2000v2000H0z"/>
    <path fill="#FFFFFF" fill-rule="evenodd" d="M290.064 1682.284v-661.118c0-365.125 313.874-661.118 701.056-661.118s701.055 295.993 701.055 661.118v661.118z"/>
    <path stroke="#FFFFFF" stroke-linecap="butt" stroke-linejoin="round" d="M290.064 1682.284v-661.118c0-365.125 313.874-661.118 701.056-661.118s701.055 295.993 701.055 661.118v661.118z"/>
    <path fill="#FFFFFF" fill-rule="evenodd" d="m-.652 1999.194 270.417-371.969h1457.717l270.417 371.969z"/>
    <path stroke="#FFFFFF" stroke-linecap="butt" stroke-linejoin="round" d="m-.652 1999.194 270.417-371.969h1457.717l270.417 371.969z"/>
    <path fill="#121212" fill-rule="evenodd" d="M304.842 1729.303h241.445v350.029H304.842z"/>
    <path fill="#121212" fill-rule="evenodd" d="M495.723 1880.014h174.282v199.318H495.723zm249.41-373.354h174.283v572.672H745.133z"/>
    <path fill="#121212" fill-rule="evenodd" d="M916.441 1666.72h174.283v412.612H916.441z"/>
    <path fill="#121212" fill-rule="evenodd" d="M1046.5 1737.247h174.283v350.029h-174.282zm-301.315-230.276 88.734-152.756 85.628 152.756z"/>
    <path fill="#FFFFFF" fill-rule="evenodd" d="M759.018 374.333c0-142.29 106.754-257.637 238.441-257.637 63.239 0 123.887 27.143 168.604 75.46 44.716 48.316 69.837 113.848 69.837 182.177 0 142.29-106.753 257.638-238.44 257.638-131.688 0-238.442-115.348-238.442-257.638zm119.22 0c0 76.446 53.378 138.418 119.221 138.418 65.844 0 119.22-61.972 119.22-138.418 0-76.445-53.376-138.417-119.22-138.417-65.843 0-119.22 61.972-119.22 138.417z"/>
    <path stroke="#FFFFFF" stroke-linecap="butt" stroke-linejoin="round" d="M759.018 374.333c0-142.29 106.754-257.637 238.441-257.637 63.239 0 123.887 27.143 168.604 75.46 44.716 48.316 69.837 113.848 69.837 182.177 0 142.29-106.753 257.638-238.44 257.638-131.688 0-238.442-115.348-238.442-257.638zm119.22 0c0 76.446 53.378 138.418 119.221 138.418 65.844 0 119.22-61.972 119.22-138.418 0-76.445-53.376-138.417-119.22-138.417-65.843 0-119.22 61.972-119.22 138.417z"/>
    <path fill="#121212" fill-rule="evenodd" d="M693.974 1627.23H935.42v572.67H693.974zm577.286-232.916h291.994v653.75H1271.26z"/>
    <path fill="#121212" fill-rule="evenodd" d="M1519.03 1859.62h222.961v199.318h-222.96z"/>
    <path fill="#FFFFFF" fill-rule="evenodd" d="M358.134 1474.88c0 83.474-21.752 165.47-63.06 237.713l-61.463-36.022c34.908-61.317 53.286-130.88 53.286-201.69z"/>
    <path stroke="#FFFFFF" stroke-linecap="butt" stroke-linejoin="round" d="M358.134 1474.88c0 83.474-21.752 165.47-63.06 237.713l-61.463-36.022c34.908-61.317 53.286-130.88 53.286-201.69z"/>
    <path fill="#FFFFFF" fill-rule="evenodd" d="M1622.016 1449.906c0 83.474 21.752 165.47 63.06 237.712l61.463-36.021c-34.908-61.317-53.287-130.88-53.287-201.691z"/>
    <path stroke="#FFFFFF" stroke-linecap="butt" stroke-linejoin="round" d="M1622.016 1449.906c0 83.474 21.752 165.47 63.06 237.712l61.463-36.021c-34.908-61.317-53.287-130.88-53.287-201.691z"/>
  </g>
</svg>
